<?xml version="1.0" standalone="no"?>
<!DOCTYPE svg PUBLIC "-//W3C//DTD SVG 20010904//EN"
 "http://www.w3.org/TR/2001/REC-SVG-20010904/DTD/svg10.dtd">
<svg version="1.0" xmlns="http://www.w3.org/2000/svg"
 width="192.000000pt" height="192.000000pt" viewBox="0 0 192.000000 192.000000"
 preserveAspectRatio="xMidYMid meet">
<metadata>
Created by potrace 1.14, written by Peter Selinger 2001-2017
</metadata>
<g transform="translate(0.000000,192.000000) scale(0.100000,-0.100000)"
fill="#000000" stroke="none">
<path d="M875 1782 c-10 -26 -19 -49 -18 -52 1 -3 -2 -9 -7 -15 -21 -27 -46
-230 -28 -241 4 -3 5 -11 1 -19 -3 -9 0 -21 6 -29 6 -7 8 -15 5 -18 -8 -9 63
-158 75 -158 6 0 7 -7 4 -17 -4 -11 -3 -14 5 -9 7 4 12 2 12 -6 0 -7 11 -25
25 -40 14 -15 25 -30 25 -33 0 -3 10 -17 23 -30 68 -73 197 -247 191 -257 -3
-4 -1 -8 4 -8 9 0 28 -39 34 -70 2 -8 8 -20 15 -27 13 -15 11 -45 -4 -50 -6
-2 -13 10 -16 27 -8 38 -18 38 -74 0 -24 -17 -48 -28 -53 -25 -5 3 -11 1 -15
-5 -6 -10 -74 -31 -115 -35 -14 -2 -25 -4 -25 -5 0 -4 -49 -10 -115 -13 -136
-6 -268 27 -327 82 -24 23 -33 17 -52 -38 -10 -32 -9 -36 23 -65 29 -28 99
-60 117 -53 3 1 12 -3 20 -9 14 -10 59 -16 134 -18 22 -1 43 -5 46 -10 4 -4
16 -3 28 3 15 8 21 9 21 1 0 -6 5 -8 12 -4 7 5 33 9 58 11 100 5 149 14 260
48 3 1 19 7 35 14 17 6 35 13 42 16 11 4 11 19 1 52 -1 6 1 10 7 10 11 -2 14
-14 20 -89 2 -32 0 -60 -4 -62 -5 -3 -7 8 -5 24 4 29 -8 40 -21 20 -4 -6 -11
-8 -16 -5 -5 4 -9 2 -9 -3 0 -9 -84 -45 -135 -58 -16 -4 -34 -8 -40 -10 -32
-8 -85 -17 -115 -19 -19 -2 -35 -4 -35 -5 0 -2 -51 -3 -112 -4 -62 -1 -113 1
-113 4 0 3 -21 6 -47 8 -25 1 -52 7 -58 12 -7 5 -14 7 -18 4 -6 -7 -75 23 -98
43 -14 12 -17 11 -21 -5 -11 -41 4 -81 37 -102 43 -26 108 -49 150 -52 19 -1
35 -5 35 -8 0 -9 264 -6 279 4 8 5 16 4 21 -4 4 -7 10 -8 13 -3 3 5 20 10 39
11 18 2 34 7 36 12 2 6 10 6 22 0 13 -7 21 -7 25 0 4 6 11 8 16 5 5 -4 9 -1 9
5 0 6 8 10 18 8 9 -1 23 1 30 5 6 5 12 5 12 0 0 -4 4 -2 8 4 4 7 19 14 32 15
14 2 32 9 40 17 15 15 16 18 19 47 0 8 6 12 11 9 8 -5 8 -11 1 -19 -6 -7 -8
-16 -5 -19 3 -3 2 -12 -2 -19 -5 -7 -9 -17 -10 -23 -4 -21 -24 -65 -29 -65 -4
0 -3 10 1 22 6 19 5 21 -8 11 -8 -7 -18 -10 -21 -6 -4 3 -7 1 -7 -6 0 -7 -4
-10 -9 -6 -5 3 -12 1 -16 -5 -4 -6 -11 -8 -16 -5 -5 4 -9 2 -9 -3 0 -5 -6 -9
-12 -10 -7 0 -22 -3 -33 -6 -23 -6 -85 -21 -130 -32 -39 -9 -367 -14 -380 -6
-11 7 -24 10 -70 14 -16 2 -33 8 -37 13 -5 6 -8 5 -8 -2 0 -17 51 -72 70 -75
8 -2 17 -6 20 -10 3 -4 19 -9 35 -12 17 -2 30 -5 30 -6 0 -17 339 -14 385 4 8
3 26 7 40 10 14 2 45 12 69 20 24 9 46 16 50 16 23 -1 -121 -87 -160 -96 -11
-2 -29 -7 -41 -10 -46 -12 -115 -18 -201 -19 -48 0 -87 -3 -87 -7 0 -5 3 -8 8
-9 4 0 14 -2 22 -4 100 -25 215 -27 290 -5 25 8 47 14 50 15 3 0 26 11 53 22
26 12 50 22 52 23 3 0 13 8 24 18 10 9 33 28 50 41 60 45 133 129 160 184 8
15 18 27 23 27 4 0 8 6 8 13 0 7 9 31 19 53 50 102 60 282 20 356 -7 12 -12
24 -11 26 4 5 -51 107 -59 110 -5 2 -9 9 -9 14 0 6 -17 34 -38 62 -22 28 -40
54 -40 59 -1 4 -10 15 -19 25 -10 10 -29 32 -43 50 -14 18 -34 43 -45 56 -34
40 -58 69 -99 121 -22 28 -43 52 -48 53 -4 2 -8 8 -8 13 0 10 -12 26 -41 57
-23 23 -101 173 -95 180 3 3 1 11 -5 19 -6 7 -11 31 -11 53 0 22 0 40 -1 40
-1 0 -11 -21 -22 -48z m355 -1432 c0 -5 -5 -10 -11 -10 -5 0 -7 5 -4 10 3 6 8
10 11 10 2 0 4 -4 4 -10z"/>
<path d="M730 951 c-30 -10 -66 -23 -80 -31 -24 -13 -24 -13 -4 -21 52 -19
284 -35 284 -19 0 3 12 6 28 6 45 1 92 16 92 28 0 11 -68 37 -115 44 -77 11
-155 9 -205 -7z"/>
<path d="M1100 872 c0 -7 -84 -35 -145 -47 -46 -10 -245 -15 -245 -7 0 4 -15
7 -32 6 -18 -1 -52 6 -76 15 -41 15 -43 15 -65 -8 l-22 -22 33 -29 c34 -28
108 -56 172 -65 50 -7 189 -6 225 1 17 3 39 7 50 9 11 1 20 3 20 5 0 1 9 3 20
5 33 6 48 11 89 28 21 9 42 17 46 17 22 0 12 27 -23 62 -40 39 -47 44 -47 30z"/>
</g>
</svg>
